<?xml version="1.0" encoding="UTF-8" standalone="no"?>
<!DOCTYPE svg  PUBLIC '-//W3C//DTD SVG 1.1//EN'  'http://www.w3.org/Graphics/SVG/1.1/DTD/svg11.dtd'>
<svg id="Laag_1" xmlns="http://www.w3.org/2000/svg" xml:space="preserve" viewBox="0 0 512 512" version="1.1" xmlns:xlink="http://www.w3.org/1999/xlink" enable-background="new 0 0 512 512"><g id="HbKWC7.tif"><path stroke="#1d8696" stroke-width="22" stroke-miterlimit="10" d="m210.3 440.1v-160.7-10c0-1-0.3-1.3-1.3-1.3h-42.9c-2 0-2 0-2-2.1v-59c0-1.9 0-1.9 1.9-1.9h42.5c1.8 0 1.8 0 1.8-1.7 0.1-7.7-0.1-15.5 0.2-23.2 0.3-7 1-14.1 1.8-21.1 0.9-7.9 2.6-15.6 4.9-23.1 4.1-13.5 9.9-26.2 19.1-37.1 6.2-7.4 14.2-12.5 22.9-16.4 6.8-3 13.8-5.2 21.1-6.8s14.6-2.5 22.1-3.2c13.3-1.2 26.6-0.8 39.9-0.4 1.4 0 2.9 0.2 4.3 0.2 0.9 0 1.4 0.3 1.3 1.3v1.1 59c0 2.4 0 2.3-2.5 2.2-7.4-0.3-14.8-0.7-22.2-0.7-7.2 0-14.5 0.9-21.3 3.3-9.3 3.2-16.1 9.4-19.9 18.5-1.5 3.6-2 7.6-2.1 11.5-0.5 11.6-0.8 23.2-1.1 34.8-0.1 2 0 2 1.9 2h65.3c2 0 2 0 2 2v59c0 2 0 2-2.1 2h-65c-2.2 0-2.2 0-2.2 2.2v167.7c0 0.7-0.1 1.3-0.1 2-22.8-0.1-45.5-0.1-68.3-0.1z" fill="none"/></g></svg>
