<svg xmlns="http://www.w3.org/2000/svg" viewBox="0 0 128 128"><path fill="#d4f6d5" d="M64 36.5c-29.5 0-46-6.9-50.6-10.5-.6-.5-1-1.2-1-2s.4-1.5 1-2C18 18.4 34.5 11.5 64 11.5s46 6.9 50.6 10.5c.6.5 1 1.2 1 2s-.4 1.5-1 2C110 29.6 93.5 36.5 64 36.5zM19.8 24c7.2 3.5 22.6 7.5 44.2 7.5s37-4 44.2-7.5c-7.2-3.5-22.6-7.5-44.2-7.5s-37 4-44.2 7.5z"/><path fill="#d4f6d5" d="M54 121.5c-.5 0-.9-.1-1.3-.4-.7-.5-1.2-1.3-1.2-2.1V83.4L5.3 36.7c-2.4-2.3-3.8-5.6-3.8-8.9V24C1.5 11.2 28.4 1.5 64 1.5s62.5 9.7 62.5 22.5v3.8c0 3.4-1.4 6.6-3.8 9L76.5 83.4V109c0 .9-.5 1.8-1.4 2.2l-20 10c-.3.2-.7.3-1.1.3zm10-115C30.1 6.5 6.5 15.7 6.5 24v3.8c0 2 .8 4 2.3 5.4l47 47.4c.5.5.7 1.1.7 1.8V115l15-7.5V82.3c0-.7.3-1.3.7-1.8l47-47.4c1.5-1.4 2.3-3.4 2.3-5.4V24c0-8.3-23.6-17.5-57.5-17.5z"/></svg>