<svg xmlns="http://www.w3.org/2000/svg" width="32" height="32"><path fill="#1d8696" d="M25.33 9.84l-3.5 6.062c-.553.956-1.775 1.284-2.732.73l-.865-.5 1-1.73c.478.275 1.09.112 1.365-.366l2.5-4.33c.276-.48.112-1.09-.365-1.366l-3.465-2c-.48-.276-1.09-.112-1.365.366l-2.5 4.33c-.277.48-.113 1.09.365 1.366l-1 1.73-.865-.5c-.957-.55-1.285-1.774-.732-2.73l3.5-6.062c.554-.957 1.776-1.284 2.733-.732l5.195 3c.957.552 1.285 1.775.732 2.732zM13.5 20.33c-.48-.276-.643-.888-.366-1.366l4-6.928c.276-.48.888-.643 1.366-.366s.643.888.365 1.366l-4 6.928c-.275.478-.886.64-1.365.366zm-.732-2.73c-.48-.277-1.09-.113-1.366.364l-2.5 4.33c-.276.48-.112 1.09.366 1.366l3.465 2c.478.276 1.09.112 1.365-.366l2.5-4.33c.276-.478.112-1.09-.365-1.366l1-1.73.865.5c.957.55 1.285 1.773.732 2.73l-3.5 6.062c-.553.957-1.775 1.284-2.732.732l-5.196-3c-.957-.553-1.285-1.775-.732-2.732l3.5-6.062c.553-.957 1.776-1.285 2.733-.732l.865.5-1 1.733z"/></svg>