<svg xmlns="http://www.w3.org/2000/svg" viewBox="0 0 43.006 43.006"><path fill="#d4f6d5" d="M25.888.034c1.397.286 2.73.698 4 1.222 1.317.54 2.555 1.206 3.73 1.984.524.35.667 1.048.317 1.555-.048.063-.08.127-.143.175-.54.587-.81 1.333-.81 2.08.017.76.318 1.507.89 2.094.57.57 1.333.873 2.08.873.76.016 1.523-.27 2.11-.825.444-.43 1.16-.397 1.57.048.05.048.096.095.128.143.778 1.175 1.444 2.43 2 3.73.524 1.286.936 2.65 1.222 4.048.127.604-.27 1.19-.873 1.318-.064.016-.128.016-.19.016-.81.032-1.54.365-2.08.92-.524.54-.84 1.27-.84 2.096 0 .81.316 1.555.84 2.095.54.54 1.27.89 2.08.905.618.016 1.094.524 1.078 1.143 0 .08 0 .16-.016.238-.286 1.398-.698 2.73-1.222 4-.556 1.318-1.222 2.556-2 3.73-.333.525-1.032.652-1.54.318-.063-.048-.127-.095-.175-.143-.587-.54-1.35-.81-2.095-.81-.746.016-1.508.302-2.08.89-.57.57-.872 1.332-.888 2.078 0 .762.27 1.524.825 2.11.43.445.413 1.144-.032 1.572-.048.048-.095.095-.16.127-1.174.778-2.412 1.444-3.73 1.984-1.285.54-2.634.952-4.046 1.238-.604.11-1.19-.27-1.303-.873-.016-.062-.032-.126-.032-.19-.016-.81-.365-1.555-.905-2.078-.54-.524-1.286-.84-2.095-.84-.825 0-1.555.316-2.095.84-.54.524-.89 1.27-.905 2.08-.016.602-.524 1.094-1.143 1.078-.08 0-.16-.016-.238-.032-1.397-.286-2.73-.683-4-1.222-1.317-.54-2.57-1.206-3.73-1.984-.524-.35-.667-1.032-.317-1.556.032-.063.08-.11.127-.16.556-.586.825-1.348.81-2.094 0-.746-.303-1.508-.874-2.08-.587-.586-1.333-.872-2.08-.888-.76 0-1.523.27-2.11.825-.444.428-1.16.412-1.587-.033-.048-.048-.08-.11-.11-.16-.78-1.174-1.46-2.412-2-3.73 0-.015-.017-.03-.017-.062C.712 28.555.3 27.222.03 25.84c-.127-.602.27-1.19.873-1.316.063 0 .127-.016.19-.016.81-.016 1.54-.365 2.063-.905.54-.54.857-1.286.857-2.095 0-.825-.317-1.556-.857-2.095-.524-.556-1.254-.89-2.063-.92-.62 0-1.11-.525-1.095-1.128 0-.095.016-.16.032-.238.286-1.397.698-2.73 1.222-4.016.54-1.3 1.222-2.554 2-3.73.333-.507 1.032-.65 1.54-.316.063.048.127.095.175.143.587.556 1.333.825 2.095.81.746 0 1.492-.302 2.08-.873.57-.587.872-1.333.872-2.095.016-.747-.254-1.51-.825-2.096-.412-.444-.396-1.158.048-1.587.048-.048.095-.08.16-.127 1.158-.778 2.412-1.444 3.73-1.984C14.397.732 15.76.304 17.173.034c.603-.127 1.19.27 1.302.873.016.063.016.127.032.19.016.81.365 1.54.905 2.063.54.524 1.27.857 2.095.857.81 0 1.555-.333 2.095-.857.54-.524.89-1.254.905-2.063.016-.62.524-1.11 1.143-1.095.08 0 .16.016.238.032zm-4.38 10.81c2.935 0 5.602 1.19 7.538 3.126 1.92 1.92 3.11 4.587 3.11 7.54 0 2.935-1.19 5.602-3.11 7.538-1.936 1.92-4.603 3.11-7.54 3.11-2.95 0-5.602-1.19-7.538-3.11-1.92-1.936-3.127-4.603-3.127-7.54 0-2.95 1.207-5.618 3.128-7.538 1.936-1.937 4.587-3.127 7.54-3.127zm5.95 4.713c-1.523-1.524-3.634-2.476-5.95-2.476-2.334 0-4.43.953-5.953 2.477-1.524 1.524-2.46 3.62-2.46 5.952 0 2.316.936 4.427 2.46 5.95 1.524 1.525 3.62 2.46 5.952 2.46 2.317 0 4.428-.935 5.952-2.46 1.523-1.523 2.46-3.634 2.46-5.95 0-2.334-.937-4.43-2.46-5.953zM29.032 3.32c-.81-.334-1.65-.62-2.49-.842-.255.873-.747 1.667-1.382 2.286-.936.92-2.238 1.492-3.65 1.492-1.43 0-2.715-.57-3.652-1.492-.65-.62-1.127-1.413-1.38-2.286-.858.222-1.683.508-2.493.84-.825.35-1.62.73-2.38 1.176.443.81.666 1.698.65 2.587-.016 1.318-.524 2.636-1.524 3.636-1.017 1.016-2.318 1.524-3.652 1.54-.89.016-1.778-.206-2.587-.65-.443.76-.824 1.554-1.174 2.38-.333.81-.62 1.635-.84 2.492.888.254 1.666.73 2.285 1.365.922.952 1.493 2.238 1.493 3.667 0 1.413-.57 2.698-1.492 3.65-.618.636-1.396 1.112-2.285 1.382.222.825.492 1.65.825 2.43 0 .03.016.047.016.062.35.825.73 1.603 1.175 2.365.81-.445 1.7-.652 2.588-.636 1.333.016 2.635.524 3.65 1.524 1 1 1.51 2.317 1.525 3.635.016.89-.206 1.794-.65 2.587.76.444 1.554.84 2.38 1.175.81.333 1.635.62 2.492.857.254-.89.73-1.682 1.38-2.302.937-.92 2.223-1.492 3.652-1.492 1.413 0 2.714.57 3.65 1.492.636.62 1.128 1.413 1.382 2.302.84-.238 1.68-.524 2.49-.857.826-.333 1.62-.73 2.366-1.175-.43-.794-.65-1.698-.635-2.587.017-1.317.525-2.635 1.525-3.635 1-1 2.317-1.508 3.635-1.524.905-.016 1.794.19 2.587.635.444-.763.84-1.54 1.19-2.366.333-.81.62-1.65.84-2.492-.888-.254-1.666-.746-2.3-1.38-.92-.953-1.476-2.24-1.476-3.652 0-1.43.557-2.714 1.477-3.667.635-.635 1.413-1.11 2.3-1.365-.22-.857-.507-1.682-.84-2.508-.35-.81-.746-1.603-1.19-2.365-.794.444-1.682.667-2.587.65-1.317-.015-2.635-.523-3.635-1.54-1-1-1.508-2.316-1.524-3.634-.015-.888.207-1.777.636-2.586-.746-.444-1.54-.84-2.365-1.175z"/></svg>