<?xml version="1.0" encoding="UTF-8" standalone="no"?>
<!DOCTYPE svg  PUBLIC '-//W3C//DTD SVG 1.1//EN'  'http://www.w3.org/Graphics/SVG/1.1/DTD/svg11.dtd'>
<svg id="Laag_1" xmlns="http://www.w3.org/2000/svg" xml:space="preserve" viewBox="0 0 512 512" version="1.1" xmlns:xlink="http://www.w3.org/1999/xlink" enable-background="new 0 0 512 512"><g id="_x35_92u79.tif"><path stroke="#1d8696" stroke-width="22" stroke-miterlimit="10" d="m320.9 108.6h9.6l1.2 0.3c2.2 0.3 4.3 0.5 6.5 0.8 13.5 2.3 25.4 7.9 35.8 16.7 1.9 1.6 3.6 3.3 5.4 5 0.4 0.4 0.8 0.7 1.5 0.4 0.3-0.1 0.6-0.1 0.8-0.2 15.5-3.3 30.2-8.9 44-16.8 0.4-0.3 0.9-0.5 1.3-0.7l0.2 0.2c-5.8 17.2-16.5 30.6-31.8 40.5 1.3-0.1 2.6-0.2 3.8-0.4 12.6-1.9 24.7-5.3 36.4-10.3 0.5-0.2 1-0.5 1.5-0.8v0.6c-0.3 0.4-0.6 0.8-0.9 1.2-7.9 11.4-17.1 21.5-27.7 30.4-2.7 2.2-5.5 4.3-8.2 6.5v2.2c0.4 9.9 0 19.7-1.1 29.6-1 9-2.5 17.8-4.7 26.6-8.2 33.4-23 63.4-45.1 89.8-19.2 23-42.2 40.9-69.4 53.6-24.9 11.6-51.2 17.8-78.6 19.2-0.6 0-1.1 0.2-1.7 0.2h-21.8c-0.5-0.1-0.9-0.2-1.4-0.2-6.2-0.3-12.3-0.9-18.5-1.8-11.3-1.6-22.3-4.2-33.2-7.6-17.4-5.5-33.8-13.1-49.2-22.8-0.3-0.2-0.7-0.5-1-0.7 19.6 2 38.9 0.6 57.8-4.7s36-14 51.5-26.1c-10.4-0.5-20.2-2.8-29.6-7.1-9.4-4.4-17.5-10.5-24.4-18.3-6.5-7.3-14.5-21.7-14.8-26.4 5.4 1 10.9 1.5 16.3 1.2 5.5-0.2 10.9-0.9 16.2-2.5-42-9.6-60.3-47.6-58.7-73.9 5.1 2.8 10.4 5 16 6.5 6.5 1.8 15 3 16.9 2.4-37.4-26.3-39-72.3-22.2-98.9 19 23.1 41.7 41.5 68.3 55.1 26.6 13.5 54.9 21 84.8 22.6-0.1-0.6-0.1-1-0.2-1.4-0.4-2.4-0.8-4.7-1.1-7.1-1.1-8.7-0.5-17.4 1.6-25.9 7.5-31.1 33.8-53.2 64-56.5 1.5-0.1 2.7-0.3 3.9-0.5z" fill="none"/></g></svg>
