<?xml version="1.0" encoding="UTF-8" standalone="no"?>
<!DOCTYPE svg  PUBLIC '-//W3C//DTD SVG 1.1//EN'  'http://www.w3.org/Graphics/SVG/1.1/DTD/svg11.dtd'>
<svg id="Laag_1" xmlns="http://www.w3.org/2000/svg" xml:space="preserve" viewBox="0 0 512 512" version="1.1" xmlns:xlink="http://www.w3.org/1999/xlink" enable-background="new 0 0 512 512"><g id="_x36_K62OT.tif"><path d="m203 137.8h-9.5c-1 0-1.9 0.2-2.8 0.8-7.8 5.5-14 12.4-18 21.1-5.1 10.8-6.2 22.2-4.9 33.9 0.6 5.2 1.2 10.5 3.5 15.3 14.8 31.7 34.5 59.8 61 82.9 20.8 18.2 44 32.2 70.2 41 5.2 1.7 10.4 3.9 16.1 3.7 6.3-0.2 12.5-0.7 18.6-2.1 8.7-1.9 16.9-5 23.7-10.9 10.6-9.2 14.5-21.1 13.9-34.8-0.1-2.5-1.1-3.7-3.2-4.9-12.7-6.7-25.3-13.6-38-20.5-2-1.1-4.1-2-6.4-2.5-3.3-0.7-6.2 0.3-7.6 2.7-0.8 1.3-1.8 2.4-2.8 3.6-5.8 6.4-11.5 12.9-17.3 19.3-0.8 1-1.5 1.2-2.8 0.8-20.1-6.9-38.2-17.1-53-32.6-9.8-10.2-17.1-22-21.8-35.4-1.1-3.1-1.1-5.4 1.8-7.4 1.7-1.2 2.9-3 4.5-4.4 3.8-3.2 6-7.5 7.8-12 1.9-4.6 2.3-8.9-0.2-13.8-7.1-13.8-13.6-27.9-20.3-41.9-0.8-1.7-1.7-2.1-3.4-2.1-3.1 0.3-6.1 0.2-9.1 0.2zm-84.5 220.6c-25.6-30.9-40.9-70.5-40.9-113.7 0-98.5 79.9-178.4 178.4-178.4s178.4 79.9 178.4 178.4-79.9 178.4-178.4 178.4c-23.7 0-46.3-4.6-67-13m-70.6-51.8l-15.7 87.5m0.1 0l86.2-35.7" stroke="#1d8696" stroke-linecap="round" stroke-miterlimit="10" stroke-width="22" fill="none"/></g></svg>
